<svg width="35" height="28" viewBox="0 0 35 28" fill="none" xmlns="http://www.w3.org/2000/svg">
<path d="M14.1963 11.9984C12.5596 11.9984 11.1585 11.411 9.99301 10.2361C8.8275 9.0613 8.24475 7.64899 8.24475 5.99922C8.24475 4.34942 8.8275 2.93709 9.99301 1.76226C11.1585 0.587419 12.5596 0 14.1963 0C15.8329 0 17.234 0.587419 18.3995 1.76226C19.565 2.93709 20.1478 4.34942 20.1478 5.99922C20.1478 7.64899 19.565 9.0613 18.3995 10.2361C17.234 11.411 15.8329 11.9984 14.1963 11.9984ZM0.309387 26.4579V23.166C0.309387 22.2457 0.539563 21.4496 0.999913 20.7779C1.46026 20.1062 2.1101 19.5717 2.94943 19.1743C4.55939 18.3847 6.21893 17.7348 7.92808 17.2246C9.63726 16.7144 11.7267 16.4593 14.1963 16.4593H14.6617C14.7838 16.4593 14.9313 16.467 15.1043 16.4824C14.9669 16.8259 14.8582 17.1624 14.7781 17.4918C14.698 17.8213 14.621 18.1437 14.5473 18.459H14.1963C11.9759 18.459 10.0397 18.6885 8.38783 19.1474C6.73589 19.6063 5.23847 20.1998 3.89558 20.9279C3.29279 21.2484 2.87502 21.5842 2.64228 21.9355C2.40958 22.2867 2.29323 22.6969 2.29323 23.166V24.4582H14.7914C14.8881 24.7735 15.0063 25.1126 15.1462 25.4754C15.2861 25.8381 15.44 26.1656 15.6079 26.4579H0.309387ZM26.5189 27.4194L26.229 25.112C25.6796 24.9966 25.1614 24.8024 24.6744 24.5294C24.1873 24.2563 23.7492 23.9096 23.3601 23.4891L21.2084 24.3505L20.369 22.9123L22.1927 21.5278C21.9739 20.9587 21.8646 20.3716 21.8646 19.7665C21.8646 19.1615 21.9739 18.5744 22.1927 18.0053L20.4072 16.5439L21.2465 15.1056L23.3601 16.0055C23.7238 15.585 24.1555 15.2447 24.6553 14.9845C25.1551 14.7243 25.6796 14.5365 26.229 14.4211L26.5189 12.1137H28.1976L28.4494 14.4211C28.9988 14.5365 29.5234 14.7262 30.0232 14.9903C30.5229 15.2543 30.9546 15.6004 31.3184 16.0286L33.4319 15.1056L34.2712 16.567L32.4858 18.0283C32.7045 18.5902 32.8139 19.1755 32.8139 19.7842C32.8139 20.3928 32.7045 20.9741 32.4858 21.5278L34.3094 22.9123L33.4701 24.3505L31.3184 23.4891C30.9292 23.9096 30.4911 24.2563 30.0041 24.5294C29.517 24.8024 28.9988 24.9966 28.4494 25.112L28.1976 27.4194H26.5189ZM27.3235 23.3814C28.3107 23.3814 29.1546 23.0271 29.8553 22.3186C30.556 21.61 30.9063 20.7581 30.9063 19.7631C30.9063 18.7681 30.5548 17.9174 29.8519 17.2111C29.1489 16.5048 28.3039 16.1517 27.3167 16.1517C26.3296 16.1517 25.4857 16.5059 24.785 17.2145C24.0843 17.9231 23.734 18.7749 23.734 19.7699C23.734 20.765 24.0855 21.6157 24.7884 22.322C25.4914 23.0283 26.3364 23.3814 27.3235 23.3814ZM14.1963 9.99867C15.2874 9.99867 16.2214 9.60706 16.9984 8.82383C17.7754 8.04061 18.164 7.09907 18.164 5.99922C18.164 4.89937 17.7754 3.95784 16.9984 3.17461C16.2214 2.39139 15.2874 1.99978 14.1963 1.99978C13.1052 1.99978 12.1711 2.39139 11.3941 3.17461C10.6171 3.95784 10.2286 4.89937 10.2286 5.99922C10.2286 7.09907 10.6171 8.04061 11.3941 8.82383C12.1711 9.60706 13.1052 9.99867 14.1963 9.99867Z" fill="white"/>
</svg>
