<svg width="35" height="27" viewBox="0 0 35 27" fill="none" xmlns="http://www.w3.org/2000/svg">
<path d="M13.4009 19.2857L17.3094 16.2L21.1235 19.2116L19.6487 14.3604L23.7026 11.1561H18.8786L17.3094 6.23073L15.7401 11.1561H10.9162L14.8756 14.3604L13.4009 19.2857ZM3.36065 27C2.5155 27 1.79566 26.6965 1.20113 26.0895C0.606635 25.4825 0.309387 24.7475 0.309387 23.8846V19.8235C0.309387 19.5441 0.377183 19.2882 0.512773 19.0558C0.648396 18.8234 0.84092 18.6503 1.09035 18.5365C1.99122 18.0074 2.71591 17.3065 3.26441 16.4336C3.81291 15.5608 4.08717 14.583 4.08717 13.5C4.08717 12.417 3.81291 11.4392 3.26441 10.5664C2.71591 9.69355 1.99122 8.99259 1.09035 8.46349C0.84092 8.34973 0.648396 8.17664 0.512773 7.94422C0.377183 7.71183 0.309387 7.45592 0.309387 7.1765V3.11537C0.309387 2.25246 0.606635 1.5175 1.20113 0.910477C1.79566 0.303492 2.5155 0 3.36065 0H31.2581C32.1033 0 32.8231 0.303492 33.4176 0.910477C34.0121 1.5175 34.3094 2.25246 34.3094 3.11537V7.1765C34.3094 7.45592 34.2416 7.71183 34.106 7.94422C33.9704 8.17664 33.7779 8.34973 33.5284 8.46349C32.6276 8.99259 31.9029 9.69355 31.3544 10.5664C30.8059 11.4392 30.5316 12.417 30.5316 13.5C30.5316 14.583 30.8059 15.5608 31.3544 16.4336C31.9029 17.3065 32.6276 18.0074 33.5284 18.5365C33.7779 18.6503 33.9704 18.8234 34.106 19.0558C34.2416 19.2882 34.3094 19.5441 34.3094 19.8235V23.8846C34.3094 24.7475 34.0121 25.4825 33.4176 26.0895C32.8231 26.6965 32.1033 27 31.2581 27H3.36065ZM3.36065 25.0714H31.2581C31.5971 25.0714 31.8756 24.9602 32.0936 24.7376C32.3115 24.5151 32.4205 24.2308 32.4205 23.8846V20.1536C31.2557 19.4464 30.3349 18.5063 29.658 17.333C28.9811 16.1598 28.6427 14.8821 28.6427 13.5C28.6427 12.1179 28.9811 10.8402 29.658 9.66696C30.3349 8.49375 31.2557 7.55357 32.4205 6.84643V3.11537C32.4205 2.76922 32.3115 2.48488 32.0936 2.26236C31.8756 2.03983 31.5971 1.92857 31.2581 1.92857H3.36065C3.02163 1.92857 2.74314 2.03983 2.5252 2.26236C2.30725 2.48488 2.19828 2.76922 2.19828 3.11537V6.84643C3.36309 7.55357 4.28392 8.49375 4.96078 9.66696C5.63763 10.8402 5.97605 12.1179 5.97605 13.5C5.97605 14.8821 5.63763 16.1598 4.96078 17.333C4.28392 18.5063 3.36309 19.4464 2.19828 20.1536V23.8846C2.19828 24.2308 2.30725 24.5151 2.5252 24.7376C2.74314 24.9602 3.02163 25.0714 3.36065 25.0714Z" fill="white"/>
</svg>
