<svg width="27" height="27" viewBox="0 0 27 27" fill="none" xmlns="http://www.w3.org/2000/svg">
<path d="M13.0331 0C5.86489 0 0 5.86489 0 13.0331C0 20.2013 5.86489 26.0662 13.0331 26.0662C20.2013 26.0662 26.0662 20.2013 26.0662 13.0331C26.0662 5.86489 20.2013 0 13.0331 0ZM13.0331 4.34436C15.4225 4.34436 17.3774 6.73376 17.3774 9.77481C17.3774 12.8159 15.4225 15.2053 13.0331 15.2053C10.6437 15.2053 8.68872 12.8159 8.68872 9.77481C8.68872 6.73376 10.6437 4.34436 13.0331 4.34436ZM20.2013 21.1788C18.3549 22.8079 15.7483 23.894 13.0331 23.894C10.3179 23.894 7.71124 22.8079 5.86489 21.1788C5.43045 20.7443 5.32184 20.0927 5.75628 19.6582C6.95098 18.2463 8.58011 17.2688 10.3179 16.7258C11.1867 17.1602 12.0556 17.3774 13.0331 17.3774C14.0106 17.3774 14.8794 17.1602 15.7483 16.7258C17.5947 17.2688 19.1152 18.2463 20.3099 19.6582C20.7443 20.0927 20.7443 20.7443 20.2013 21.1788Z" fill="white"/>
</svg>
