<svg width="30" height="30" viewBox="0 0 30 30" fill="none" xmlns="http://www.w3.org/2000/svg">
<path d="M19.486 2.5121L19.8136 2.02156L20.1353 1.5376L20.8594 0.451693C20.948 0.318126 20.9121 0.138439 20.7797 0.0491946C20.645 -0.0400499 20.4653 -0.00411238 20.376 0.130054L19.6004 1.29442L19.274 1.78377L18.9427 2.27971C17.8934 1.87302 16.7236 1.64481 15.488 1.64481C14.2535 1.64481 13.0837 1.87302 12.0344 2.27971L11.7049 1.78377L11.3785 1.29442L10.6017 0.129455C10.513 -0.00411233 10.3327 -0.0400498 10.1986 0.0485957C10.0656 0.137241 10.0297 0.317527 10.1183 0.451094L10.8419 1.537L11.1647 2.02096L11.4923 2.5115C9.02761 3.6591 7.36072 5.83331 7.36072 8.32198H23.6176C23.6176 5.83391 21.9507 3.6597 19.486 2.5121ZM12.0056 5.99982C11.5235 5.99982 11.1341 5.6099 11.1341 5.12894C11.1341 4.64798 11.5235 4.25866 12.0056 4.25866C12.4866 4.25866 12.8759 4.64798 12.8759 5.12894C12.8759 5.6099 12.4866 5.99982 12.0056 5.99982ZM18.9721 5.99982C18.4911 5.99982 18.1018 5.6099 18.1018 5.12894C18.1018 4.64798 18.4911 4.25866 18.9721 4.25866C19.4542 4.25866 19.8436 4.64798 19.8436 5.12894C19.8436 5.6099 19.4542 5.99982 18.9721 5.99982Z" fill="white"/>
<path d="M7.4859 9.48395H7.36072V10.9322V12.114V22.2579C7.36072 23.2719 8.18488 24.0967 9.19891 24.0967H10.5262C10.4819 24.25 10.4567 24.4123 10.4567 24.58V24.6771V25.2575V28.2582C10.4567 29.2196 11.2372 30 12.1991 30C13.161 30 13.9409 29.2196 13.9409 28.2582V25.2575V24.6771V24.58C13.9409 24.4129 13.9151 24.25 13.872 24.0967H17.1063C17.062 24.25 17.0375 24.4123 17.0375 24.58V24.6771V25.2575V28.2582C17.0375 29.2196 17.8179 30 18.7792 30C19.7405 30 20.521 29.2196 20.521 28.2582V25.2575V24.6771V24.58C20.521 24.4129 20.4964 24.25 20.4521 24.0967H21.7788C22.7928 24.0967 23.6176 23.2719 23.6176 22.2579V12.114V10.9322V9.48395H23.4924H7.4859Z" fill="white"/>
<path d="M4.45704 9.48395C3.49511 9.48395 2.71527 10.2632 2.71527 11.2263V18.6767C2.71527 19.6381 3.49511 20.4185 4.45704 20.4185C5.41836 20.4185 6.1988 19.6381 6.1988 18.6767V11.2257C6.1988 10.2632 5.41896 9.48395 4.45704 9.48395Z" fill="white"/>
<path d="M26.5214 9.48395C25.5588 9.48395 24.7796 10.2632 24.7796 11.2263V18.6767C24.7796 19.6381 25.5588 20.4185 26.5214 20.4185C27.4827 20.4185 28.2619 19.6381 28.2619 18.6767V11.2257C28.2619 10.2632 27.4827 9.48395 26.5214 9.48395Z" fill="white"/>
</svg>
