<svg width="11" height="11" viewBox="0 0 11 11" fill="none" xmlns="http://www.w3.org/2000/svg">
<path fill-rule="evenodd" clip-rule="evenodd" d="M10.6997 5.83481C10.8207 5.71507 10.8892 5.55216 10.89 5.38192C10.8909 5.21169 10.8242 5.04807 10.7044 4.92706L6.18963 0.364448C6.06989 0.24344 5.90698 0.174955 5.73675 0.174058C5.56651 0.173162 5.4029 0.239928 5.28189 0.359668C5.16088 0.479408 5.09239 0.642314 5.0915 0.812549C5.0906 0.982783 5.15737 1.1464 5.27711 1.26741L8.70204 4.72861L0.912199 4.64981C0.827801 4.64937 0.744141 4.66555 0.665997 4.69744C0.587854 4.72932 0.516756 4.77629 0.456763 4.83566C0.39677 4.89502 0.349057 4.96562 0.316348 5.04342C0.28364 5.12123 0.266578 5.20471 0.266133 5.28911C0.265689 5.37351 0.281871 5.45717 0.313759 5.53531C0.345646 5.61345 0.392612 5.68455 0.451977 5.74454C0.511341 5.80454 0.58194 5.85225 0.659743 5.88496C0.737547 5.91767 0.821032 5.93473 0.90543 5.93517L8.69528 6.01216L5.23408 9.43709C5.11307 9.55683 5.04459 9.71974 5.04369 9.88997C5.04279 10.0602 5.10956 10.2238 5.2293 10.3448C5.34904 10.4658 5.51195 10.5343 5.68218 10.5352C5.85242 10.5361 6.01604 10.4694 6.13704 10.3496L10.6997 5.83481Z" fill="white"/>
</svg>
