<svg width="21" height="24" viewBox="0 0 21 24" fill="none" xmlns="http://www.w3.org/2000/svg">
<path d="M10.1473 18.6627C9.76786 19.1209 9.08929 19.1209 8.66964 18.6627L5.8125 15.7877C5.39732 15.4059 5.39732 14.723 5.8125 14.3008C6.23214 13.883 6.91071 13.883 7.29018 14.3008L9.42857 16.4166L13.6696 12.1445C14.0893 11.7268 14.7679 11.7268 15.1473 12.1445C15.6027 12.5668 15.6027 13.2496 15.1473 13.6314L10.1473 18.6627ZM6.21429 0.330078C6.80804 0.330078 7.28571 0.812988 7.28571 1.4082V3.20508H13.7143V1.4082C13.7143 0.812988 14.192 0.330078 14.7857 0.330078C15.3795 0.330078 15.8571 0.812988 15.8571 1.4082V3.20508H17.6429C19.2188 3.20508 20.5 4.49209 20.5 6.08008V20.4551C20.5 22.0408 19.2188 23.3301 17.6429 23.3301H3.35714C1.77902 23.3301 0.5 22.0408 0.5 20.4551V6.08008C0.5 4.49209 1.77902 3.20508 3.35714 3.20508H5.14286V1.4082C5.14286 0.812988 5.62054 0.330078 6.21429 0.330078ZM18.3571 8.95508H2.64286V20.4551C2.64286 20.8504 2.9625 21.1738 3.35714 21.1738H17.6429C18.0357 21.1738 18.3571 20.8504 18.3571 20.4551V8.95508Z" fill="white"/>
</svg>
