<svg width="27" height="25" viewBox="0 0 27 25" fill="none" xmlns="http://www.w3.org/2000/svg">
<path d="M2.73296 23.1667C2.12185 23.1667 1.59871 22.96 1.16352 22.5465C0.728335 22.1331 0.510742 21.6361 0.510742 21.0556V8.38889C0.510742 7.80833 0.728335 7.31134 1.16352 6.89792C1.59871 6.48449 2.12185 6.27778 2.73296 6.27778H4.95519C4.95519 4.81759 5.49685 3.57292 6.58019 2.54375C7.66352 1.51458 8.97371 1 10.5107 1C12.0478 1 13.358 1.51458 14.4413 2.54375C15.5246 3.57292 16.0663 4.81759 16.0663 6.27778H18.2885C18.8996 6.27778 19.4228 6.48449 19.858 6.89792C20.2931 7.31134 20.5107 7.80833 20.5107 8.38889V21.0556C20.5107 21.6361 20.2931 22.1331 19.858 22.5465C19.4228 22.96 18.8996 23.1667 18.2885 23.1667H2.73296ZM2.73296 21.0556H18.2885V8.38889H2.73296V21.0556ZM10.5107 14.7222C12.0478 14.7222 13.358 14.2076 14.4413 13.1785C15.5246 12.1493 16.0663 10.9046 16.0663 9.44444H13.8441C13.8441 10.3241 13.52 11.0718 12.8719 11.6875C12.2237 12.3032 11.4367 12.6111 10.5107 12.6111C9.58482 12.6111 8.79778 12.3032 8.14963 11.6875C7.50148 11.0718 7.17741 10.3241 7.17741 9.44444H4.95519C4.95519 10.9046 5.49685 12.1493 6.58019 13.1785C7.66352 14.2076 8.97371 14.7222 10.5107 14.7222ZM7.17741 6.27778H13.8441C13.8441 5.39815 13.52 4.65046 12.8719 4.03472C12.2237 3.41898 11.4367 3.11111 10.5107 3.11111C9.58482 3.11111 8.79778 3.41898 8.14963 4.03472C7.50148 4.65046 7.17741 5.39815 7.17741 6.27778Z" fill="white"/>
<ellipse cx="20.3857" cy="7.20508" rx="5.875" ry="5.375" fill="#0082D6"/>
</svg>
