<svg width="36" height="30" viewBox="0 0 36 30" fill="none" xmlns="http://www.w3.org/2000/svg">
<path d="M20.4674 30C18.5598 30 16.7337 29.6424 14.989 28.9273C13.2444 28.2122 11.674 27.2128 10.2778 25.9291L11.6371 24.5913C12.8597 25.6995 14.2024 26.5655 15.6652 27.1893C17.128 27.8131 18.7287 28.125 20.4674 28.125C24.078 28.125 27.1451 26.8498 29.6687 24.2993C32.1923 21.7488 33.4541 18.649 33.4541 15C33.4541 11.375 32.1864 8.28125 29.6509 5.71875C27.1154 3.15625 24.0542 1.875 20.4674 1.875C16.8806 1.875 13.8194 3.15625 11.2839 5.71875C8.74842 8.28125 7.48066 11.375 7.48066 15V17.5997L11.473 13.5649L12.7966 14.8558L6.55304 21.1659L0.309387 14.8558L1.63306 13.5649L5.62542 17.6466V15C5.62542 12.9188 6.01251 10.9694 6.78671 9.15183C7.56093 7.33427 8.62058 5.7458 9.96563 4.38642C11.3107 3.02705 12.8822 1.95613 14.6802 1.17366C16.4782 0.39122 18.4066 0 20.4654 0C22.5242 0 24.4532 0.39122 26.2526 1.17366C28.0519 1.95613 29.6241 3.02705 30.9692 4.38642C32.3142 5.7458 33.3739 7.33392 34.1481 9.1508C34.9223 10.9677 35.3094 12.9164 35.3094 14.9968C35.3094 19.1576 33.8664 22.6983 30.9805 25.619C28.0945 28.5397 24.5902 30 20.4674 30ZM16.7569 22.0673C16.2919 22.0673 15.9021 21.9083 15.5875 21.5904C15.273 21.2725 15.1157 20.8786 15.1157 20.4087V14.7837C15.1157 14.3137 15.2935 13.9198 15.6491 13.6019C16.0047 13.284 16.4453 13.125 16.971 13.125V11.0337C16.971 10.0619 17.3133 9.23 17.9981 8.538C18.6828 7.846 19.5059 7.5 20.4674 7.5C21.4289 7.5 22.252 7.846 22.9367 8.538C23.6215 9.23 23.9639 10.0619 23.9639 11.0337V13.125C24.4895 13.125 24.9301 13.284 25.2857 13.6019C25.6413 13.9198 25.8191 14.3137 25.8191 14.7837V20.4087C25.8191 20.8786 25.6618 21.2725 25.3473 21.5904C25.0327 21.9083 24.6429 22.0673 24.1779 22.0673H16.7569ZM18.3981 13.125H22.5367V11.0476C22.5367 10.459 22.3351 9.96094 21.932 9.5535C21.5288 9.14603 21.0406 8.9423 20.4674 8.9423C19.8942 8.9423 19.406 9.14603 19.0028 9.5535C18.5997 9.96094 18.3981 10.459 18.3981 11.0476V13.125Z" fill="white"/>
</svg>
