<svg width="17" height="19" viewBox="0 0 17 19" fill="none" xmlns="http://www.w3.org/2000/svg">
<path d="M7.94247 14.9962C7.6389 15.3627 7.09604 15.3627 6.76032 14.9962L4.47461 12.6962C4.14247 12.3907 4.14247 11.8445 4.47461 11.5066C4.81032 11.1724 5.35318 11.1724 5.65675 11.5066L7.36747 13.1993L10.7603 9.78164C11.096 9.44742 11.6389 9.44742 11.9425 9.78164C12.3068 10.1195 12.3068 10.6657 11.9425 10.9712L7.94247 14.9962ZM4.79604 0.330078C5.27104 0.330078 5.65318 0.716406 5.65318 1.19258V2.63008H10.796V1.19258C10.796 0.716406 11.1782 0.330078 11.6532 0.330078C12.1282 0.330078 12.5103 0.716406 12.5103 1.19258V2.63008H13.9389C15.1996 2.63008 16.2246 3.65969 16.2246 4.93008V16.4301C16.2246 17.6987 15.1996 18.7301 13.9389 18.7301H2.51032C1.24782 18.7301 0.224609 17.6987 0.224609 16.4301V4.93008C0.224609 3.65969 1.24782 2.63008 2.51032 2.63008H3.9389V1.19258C3.9389 0.716406 4.32104 0.330078 4.79604 0.330078ZM14.5103 7.23008H1.9389V16.4301C1.9389 16.7463 2.19461 17.0051 2.51032 17.0051H13.9389C14.2532 17.0051 14.5103 16.7463 14.5103 16.4301V7.23008Z" fill="white"/>
</svg>
