<svg width="21" height="23" viewBox="0 0 21 23" fill="none" xmlns="http://www.w3.org/2000/svg">
<rect y="0.15625" width="21" height="22" stroke="black"/>
<path d="M9.625 3.82292H3.5C3.03587 3.82292 2.59075 4.01608 2.26256 4.35989C1.93437 4.70371 1.75 5.17002 1.75 5.65626V18.4896C1.75 18.9758 1.93437 19.4421 2.26256 19.786C2.59075 20.1298 3.03587 20.3229 3.5 20.3229H15.75C16.2141 20.3229 16.6592 20.1298 16.9874 19.786C17.3156 19.4421 17.5 18.9758 17.5 18.4896V12.0729" stroke="white" stroke-linecap="round" stroke-linejoin="round"/>
<path d="M16.1875 2.44792C16.5356 2.08324 17.0077 1.87837 17.5 1.87837C17.9923 1.87837 18.4644 2.08324 18.8125 2.44792C19.1606 2.81259 19.3562 3.30719 19.3562 3.82292C19.3562 4.33864 19.1606 4.83324 18.8125 5.19792L10.5 13.9062L7 14.8229L7.875 11.1562L16.1875 2.44792Z" stroke="white" stroke-linecap="round" stroke-linejoin="round"/>
</svg>
