<svg width="26" height="27" viewBox="0 0 26 27" fill="none" xmlns="http://www.w3.org/2000/svg">
<path d="M13 26.8C20.1797 26.8 26 20.9798 26 13.8C26 6.62035 20.1797 0.800049 13 0.800049C5.8203 0.800049 0 6.62035 0 13.8C0 20.9798 5.8203 26.8 13 26.8Z" fill="#2D3035"/>
<path fill-rule="evenodd" clip-rule="evenodd" d="M13.0203 3.13599L6.5 13.9667L13.0203 17.8407L19.5 13.9667L13.0203 3.13599ZM6.5 15.258L13.0203 19.0904L19.5 15.258L13.0203 24.4641L6.5 15.258Z" fill="#828384"/>
<path fill-rule="evenodd" clip-rule="evenodd" d="M13.0205 17.8157V3.13599L19.4819 13.936L13.0205 17.8157ZM19.4606 15.2722L13.0205 24.4641V19.1073L19.4606 15.2722Z" fill="#2F3030"/>
<path opacity="0.8" fill-rule="evenodd" clip-rule="evenodd" d="M13.0203 11.0508L6.5 13.9667L13.0203 17.8407L19.5 13.9667L13.0203 11.0508Z" fill="#131313"/>
</svg>
