<svg width="25" height="24" viewBox="0 0 25 24" fill="none" xmlns="http://www.w3.org/2000/svg">
<path d="M7.4082 11L12.9082 2L18.4082 11H7.4082ZM18.4082 22C17.1582 22 16.0955 21.5627 15.2202 20.688C14.3455 19.8127 13.9082 18.75 13.9082 17.5C13.9082 16.25 14.3455 15.1873 15.2202 14.312C16.0955 13.4373 17.1582 13 18.4082 13C19.6582 13 20.7209 13.4373 21.5962 14.312C22.4709 15.1873 22.9082 16.25 22.9082 17.5C22.9082 18.75 22.4709 19.8127 21.5962 20.688C20.7209 21.5627 19.6582 22 18.4082 22ZM3.9082 21.5V13.5H11.9082V21.5H3.9082ZM18.4082 20C19.1082 20 19.6999 19.7583 20.1832 19.275C20.6665 18.7917 20.9082 18.2 20.9082 17.5C20.9082 16.8 20.6665 16.2083 20.1832 15.725C19.6999 15.2417 19.1082 15 18.4082 15C17.7082 15 17.1165 15.2417 16.6332 15.725C16.1499 16.2083 15.9082 16.8 15.9082 17.5C15.9082 18.2 16.1499 18.7917 16.6332 19.275C17.1165 19.7583 17.7082 20 18.4082 20ZM5.9082 19.5H9.9082V15.5H5.9082V19.5ZM10.9582 9H14.8582L12.9082 5.85L10.9582 9Z" fill="white"/>
</svg>
