<svg width="17" height="15" viewBox="0 0 17 15" fill="none" xmlns="http://www.w3.org/2000/svg">
<path d="M1.5 7L4.5 10.5L8.35938 14.3594L10 12.5L12 11L14.5 8C14.6667 7.5 15.1 6.4 15.5 6C16 5.5 15.5 5.5 15.5 5V4L15 2.5C14.8333 2.16667 14.4 1.5 14 1.5C13.6 1.5 13.1667 1.16667 13 1L11 1.5L10 2.5L8.5 3V3.5H7.5C7.1 3.5 7 3.16667 7 3L6 2L4.5 1.5H3.5L1.5 2L1 3V5L1.5 7Z" fill="white"/>
<path d="M8.5 14.5C8.46663 14.4666 8.41912 14.4191 8.35938 14.3594M8.35938 14.3594C7.70286 13.7029 5.56935 11.5694 4.5 10.5L1.5 7L1 5V3L1.5 2L3.5 1.5H4.5L6 2L7 3C7 3.16667 7.1 3.5 7.5 3.5C7.9 3.5 8.33333 3.5 8.5 3.5V3L10 2.5L11 1.5L13 1C13.1667 1.16667 13.6 1.5 14 1.5C14.4 1.5 14.8333 2.16667 15 2.5L15.5 4C15.5 4.16667 15.5 4.6 15.5 5C15.5 5.5 16 5.5 15.5 6C15.1 6.4 14.6667 7.5 14.5 8L12 11L10 12.5L8.35938 14.3594Z" stroke="white"/>
</svg>
