<svg width="22" height="19" viewBox="0 0 22 19" fill="none" xmlns="http://www.w3.org/2000/svg">
<path d="M5.34961 13.8301L11.3496 18.8301L15.8496 15.3301C16.8496 14.4967 18.8496 12.7301 18.8496 12.3301C18.8496 11.9301 19.8496 11.1634 20.3496 10.8301L21.3496 8.83008L21.8496 6.83008V5.83008L21.3496 3.83008L19.8496 1.83008L18.8496 0.830078H16.3496H14.3496L13.3496 1.83008L12.3496 2.83008C11.8496 3.33008 11.8496 3.33008 11.8496 3.83008C11.8496 4.23008 11.1829 3.99674 10.8496 3.83008L10.3496 3.33008L9.34961 2.33008L7.84961 0.830078H6.34961H3.84961L2.34961 1.83008L0.849609 3.33008L0.349609 5.83008C0.516276 6.66341 0.849609 8.43008 0.849609 8.83008C0.849609 9.23008 1.84961 10.6634 2.34961 11.3301L5.34961 13.8301Z" fill="#0082D6"/>
</svg>
