<svg width="18" height="16" viewBox="0 0 18 16" fill="none" xmlns="http://www.w3.org/2000/svg">
<path d="M17.0462 2.95934H5.45526C5.27443 2.95934 5.101 2.88751 4.97314 2.75964C4.84527 2.63177 4.77344 2.45835 4.77344 2.27752C4.77344 2.09669 4.84527 1.92327 4.97314 1.7954C5.101 1.66754 5.27443 1.5957 5.45526 1.5957H17.0462C17.227 1.5957 17.4004 1.66754 17.5283 1.7954C17.6561 1.92327 17.728 2.09669 17.728 2.27752C17.728 2.45835 17.6561 2.63177 17.5283 2.75964C17.4004 2.88751 17.227 2.95934 17.0462 2.95934Z" fill="white"/>
<path d="M2.72727 2.95922H0.681818C0.500989 2.95922 0.327566 2.88738 0.1997 2.75952C0.0718342 2.63165 0 2.45823 0 2.2774C0 2.09657 0.0718342 1.92315 0.1997 1.79528C0.327566 1.66742 0.500989 1.59558 0.681818 1.59558H2.72727C2.9081 1.59558 3.08153 1.66742 3.20939 1.79528C3.33726 1.92315 3.40909 2.09657 3.40909 2.2774C3.40909 2.45823 3.33726 2.63165 3.20939 2.75952C3.08153 2.88738 2.9081 2.95922 2.72727 2.95922Z" fill="white"/>
<path d="M12.2727 8.41381H0.681818C0.500989 8.41381 0.327566 8.34197 0.1997 8.21411C0.0718342 8.08624 0 7.91282 0 7.73199C0 7.55116 0.0718342 7.37774 0.1997 7.24987C0.327566 7.12201 0.500989 7.05017 0.681818 7.05017H12.2727C12.4536 7.05017 12.627 7.12201 12.7548 7.24987C12.8827 7.37774 12.9545 7.55116 12.9545 7.73199C12.9545 7.91282 12.8827 8.08624 12.7548 8.21411C12.627 8.34197 12.4536 8.41381 12.2727 8.41381Z" fill="white"/>
<path d="M5.45455 13.8683H0.681818C0.500989 13.8683 0.327566 13.7964 0.1997 13.6686C0.0718342 13.5407 0 13.3673 0 13.1865C0 13.0056 0.0718342 12.8322 0.1997 12.7043C0.327566 12.5765 0.500989 12.5046 0.681818 12.5046H5.45455C5.63537 12.5046 5.8088 12.5765 5.93666 12.7043C6.06453 12.8322 6.13636 13.0056 6.13636 13.1865C6.13636 13.3673 6.06453 13.5407 5.93666 13.6686C5.8088 13.7964 5.63537 13.8683 5.45455 13.8683Z" fill="white"/>
<path d="M4.09038 4.32284C3.68582 4.32284 3.29036 4.20288 2.95398 3.97812C2.61761 3.75336 2.35544 3.43391 2.20062 3.06015C2.04581 2.68639 2.0053 2.27512 2.08423 1.87834C2.16315 1.48156 2.35796 1.1171 2.64402 0.831034C2.93008 0.544972 3.29455 0.350162 3.69133 0.271237C4.08811 0.192313 4.49938 0.23282 4.87314 0.387635C5.2469 0.542451 5.56635 0.804622 5.79111 1.141C6.01587 1.47737 6.13583 1.87284 6.13583 2.27739C6.13583 2.81988 5.92033 3.34015 5.53673 3.72374C5.15314 4.10734 4.63287 4.32284 4.09038 4.32284ZM4.09038 1.59557C3.95553 1.59557 3.8237 1.63556 3.71158 1.71048C3.59945 1.7854 3.51206 1.89188 3.46046 2.01647C3.40885 2.14105 3.39535 2.27815 3.42166 2.41041C3.44797 2.54267 3.51291 2.66415 3.60826 2.75951C3.70361 2.85486 3.8251 2.9198 3.95736 2.94611C4.08962 2.97241 4.22671 2.95891 4.3513 2.90731C4.47588 2.8557 4.58237 2.76831 4.65729 2.65619C4.73221 2.54406 4.7722 2.41224 4.7722 2.27739C4.7722 2.09656 4.70036 1.92314 4.5725 1.79527C4.44463 1.66741 4.27121 1.59557 4.09038 1.59557Z" fill="white"/>
<path d="M13.6373 9.77743C13.2327 9.77743 12.8372 9.65747 12.5009 9.43271C12.1645 9.20796 11.9023 8.8885 11.7475 8.51474C11.5927 8.14098 11.5522 7.72971 11.6311 7.33293C11.71 6.93615 11.9048 6.57169 12.1909 6.28562C12.477 5.99956 12.8414 5.80475 13.2382 5.72583C13.635 5.6469 14.0463 5.68741 14.42 5.84223C14.7938 5.99704 15.1132 6.25921 15.338 6.59559C15.5627 6.93196 15.6827 7.32743 15.6827 7.73198C15.6827 8.27447 15.4672 8.79474 15.0836 9.17833C14.7 9.56193 14.1797 9.77743 13.6373 9.77743ZM13.6373 7.05016C13.5024 7.05016 13.3706 7.09015 13.2585 7.16507C13.1463 7.23999 13.0589 7.34647 13.0073 7.47106C12.9557 7.59564 12.9422 7.73274 12.9685 7.865C12.9948 7.99726 13.0598 8.11874 13.1551 8.2141C13.2505 8.30945 13.372 8.37439 13.5042 8.4007C13.6365 8.427 13.7736 8.4135 13.8982 8.3619C14.0228 8.31029 14.1292 8.2229 14.2042 8.11078C14.2791 7.99865 14.3191 7.86683 14.3191 7.73198C14.3191 7.55115 14.2472 7.37773 14.1194 7.24986C13.9915 7.122 13.8181 7.05016 13.6373 7.05016Z" fill="white"/>
<path d="M6.81889 15.232C6.41434 15.232 6.01887 15.1121 5.6825 14.8873C5.34613 14.6625 5.08395 14.3431 4.92914 13.9693C4.77432 13.5956 4.73382 13.1843 4.81274 12.7875C4.89167 12.3907 5.08648 12.0263 5.37254 11.7402C5.6586 11.4542 6.02307 11.2593 6.41984 11.1804C6.81662 11.1015 7.2279 11.142 7.60165 11.2968C7.97541 11.4516 8.29487 11.7138 8.51963 12.0502C8.74438 12.3865 8.86435 12.782 8.86435 13.1866C8.86435 13.7291 8.64885 14.2493 8.26525 14.6329C7.88165 15.0165 7.36138 15.232 6.81889 15.232ZM6.81889 12.5048C6.68404 12.5048 6.55222 12.5447 6.4401 12.6197C6.32797 12.6946 6.24058 12.8011 6.18898 12.9256C6.13737 13.0502 6.12387 13.1873 6.15018 13.3196C6.17648 13.4518 6.24142 13.5733 6.33678 13.6687C6.43213 13.764 6.55362 13.829 6.68588 13.8553C6.81814 13.8816 6.95523 13.8681 7.07981 13.8165C7.2044 13.7649 7.31089 13.6775 7.3858 13.5654C7.46072 13.4532 7.50071 13.3214 7.50071 13.1866C7.50071 13.0057 7.42888 12.8323 7.30101 12.7045C7.17315 12.5766 6.99972 12.5048 6.81889 12.5048Z" fill="white"/>
<path d="M17.0456 8.41381H15.0002C14.8193 8.41381 14.6459 8.34197 14.5181 8.21411C14.3902 8.08624 14.3184 7.91282 14.3184 7.73199C14.3184 7.55116 14.3902 7.37774 14.5181 7.24987C14.6459 7.12201 14.8193 7.05017 15.0002 7.05017H17.0456C17.2265 7.05017 17.3999 7.12201 17.5278 7.24987C17.6556 7.37774 17.7275 7.55116 17.7275 7.73199C17.7275 7.91282 17.6556 8.08624 17.5278 8.21411C17.3999 8.34197 17.2265 8.41381 17.0456 8.41381Z" fill="white"/>
<path d="M17.0455 13.8683H8.18182C8.00099 13.8683 7.82757 13.7964 7.6997 13.6686C7.57183 13.5407 7.5 13.3673 7.5 13.1865C7.5 13.0056 7.57183 12.8322 7.6997 12.7043C7.82757 12.5765 8.00099 12.5046 8.18182 12.5046H17.0455C17.2263 12.5046 17.3997 12.5765 17.5276 12.7043C17.6554 12.8322 17.7273 13.0056 17.7273 13.1865C17.7273 13.3673 17.6554 13.5407 17.5276 13.6686C17.3997 13.7964 17.2263 13.8683 17.0455 13.8683Z" fill="white"/>
</svg>
