<svg width="25" height="24" viewBox="0 0 25 24" fill="none" xmlns="http://www.w3.org/2000/svg">
<path d="M12.5 23.25C10.275 23.25 8.09989 22.5902 6.24984 21.354C4.39979 20.1179 2.95785 18.3609 2.10636 16.3052C1.25487 14.2495 1.03209 11.9875 1.46617 9.80524C1.90025 7.62295 2.97171 5.61839 4.54505 4.04505C6.11839 2.47171 8.12295 1.40025 10.3052 0.966171C12.4875 0.532087 14.7495 0.754875 16.8052 1.60636C18.8609 2.45785 20.6179 3.89979 21.854 5.74984C23.0902 7.59989 23.75 9.77497 23.75 12C23.75 14.9837 22.5647 17.8452 20.455 19.955C18.3452 22.0647 15.4837 23.25 12.5 23.25ZM12.5 2.25001C10.5716 2.25001 8.68658 2.82183 7.0832 3.89318C5.47982 4.96452 4.23013 6.48726 3.49218 8.26884C2.75423 10.0504 2.56114 12.0108 2.93735 13.9021C3.31355 15.7935 4.24215 17.5307 5.60571 18.8943C6.96928 20.2579 8.70656 21.1865 10.5979 21.5627C12.4892 21.9389 14.4496 21.7458 16.2312 21.0078C18.0127 20.2699 19.5355 19.0202 20.6068 17.4168C21.6782 15.8134 22.25 13.9284 22.25 12C22.25 9.41414 21.2228 6.93419 19.3943 5.10571C17.5658 3.27723 15.0859 2.25001 12.5 2.25001Z" fill="white"/>
<path d="M13.25 10.5H11.75V17.25H13.25V10.5Z" fill="white"/>
<path d="M12.5 9C12.2033 9 11.9133 8.91203 11.6666 8.74721C11.42 8.58238 11.2277 8.34812 11.1142 8.07403C11.0006 7.79994 10.9709 7.49834 11.0288 7.20737C11.0867 6.91639 11.2296 6.64912 11.4393 6.43934C11.6491 6.22956 11.9164 6.0867 12.2074 6.02882C12.4983 5.97094 12.7999 6.00065 13.074 6.11418C13.3481 6.22771 13.5824 6.41997 13.7472 6.66665C13.912 6.91332 14 7.20333 14 7.5C14 7.89783 13.842 8.27936 13.5607 8.56066C13.2794 8.84197 12.8978 9 12.5 9Z" fill="white"/>
</svg>
