<svg width="22" height="21" viewBox="0 0 22 21" fill="none" xmlns="http://www.w3.org/2000/svg">
<path d="M10.99 5.03809C8.01043 5.03809 5.54166 7.45139 5.54166 10.4574C5.54166 13.4635 7.96787 15.8768 10.99 15.8768C14.0121 15.8768 16.4383 13.4212 16.4383 10.4574C16.4383 7.49373 13.9695 5.03809 10.99 5.03809ZM10.99 13.9292C9.07456 13.9292 7.49965 12.3627 7.49965 10.4574C7.49965 8.5522 9.07456 6.98567 10.99 6.98567C12.9054 6.98567 14.4803 8.5522 14.4803 10.4574C14.4803 12.3627 12.9054 13.9292 10.99 13.9292Z" fill="white"/>
<path d="M16.6519 6.13924C17.3337 6.13924 17.8863 5.58952 17.8863 4.91142C17.8863 4.23331 17.3337 3.68359 16.6519 3.68359C15.9702 3.68359 15.4175 4.23331 15.4175 4.91142C15.4175 5.58952 15.9702 6.13924 16.6519 6.13924Z" fill="white"/>
<path d="M19.8442 1.73589C18.7375 0.592742 17.1626 0 15.3749 0H6.60648C2.90332 0 0.43454 2.45564 0.43454 6.13911V14.8185C0.43454 16.6391 1.03045 18.2056 2.22228 19.3488C3.37153 20.4496 4.90388 21 6.64905 21H15.3323C17.1626 21 18.695 20.4073 19.8017 19.3488C20.9509 18.248 21.5468 16.6815 21.5468 14.8609V6.13911C21.5468 4.36089 20.9509 2.83669 19.8442 1.73589ZM19.674 14.8609C19.674 16.1734 19.2058 17.2319 18.4396 17.9516C17.6734 18.6714 16.6093 19.0524 15.3323 19.0524H6.64905C5.37209 19.0524 4.30797 18.6714 3.54179 17.9516C2.77562 17.1895 2.39254 16.131 2.39254 14.8185V6.13911C2.39254 4.86895 2.77562 3.81048 3.54179 3.04839C4.2654 2.32863 5.37209 1.94758 6.64905 1.94758H15.4175C16.6944 1.94758 17.7585 2.32863 18.5247 3.09073C19.2483 3.85282 19.674 4.91129 19.674 6.13911V14.8609Z" fill="white"/>
</svg>
