<svg width="33" height="32" viewBox="0 0 33 32" fill="none" xmlns="http://www.w3.org/2000/svg">
<path d="M5.66835 31C4.92262 31 4.28747 30.7377 3.76289 30.2132C3.23833 29.6886 2.97605 29.0534 2.97605 28.3077V9.77246C2.49742 9.57374 2.09997 9.25268 1.78372 8.80929C1.4675 8.36593 1.30939 7.85685 1.30939 7.28204V3.69229C1.30939 2.94657 1.57167 2.31142 2.09622 1.78683C2.6208 1.26228 3.25596 1 4.00168 1H28.6171C29.3628 1 29.998 1.26228 30.5226 1.78683C31.0471 2.31142 31.3094 2.94657 31.3094 3.69229V7.28204C31.3094 7.85685 31.1513 8.36593 30.8351 8.80929C30.5188 9.25268 30.1214 9.57374 29.6427 9.77246V28.3077C29.6427 29.0534 29.3804 29.6886 28.8559 30.2132C28.3313 30.7377 27.6962 31 26.9504 31H5.66835ZM4.64272 9.97438V28.1475C4.64272 28.4893 4.76558 28.7724 5.0113 28.9968C5.25703 29.2212 5.56151 29.3333 5.92476 29.3333H26.9504C27.2496 29.3333 27.4953 29.2372 27.6876 29.0449C27.8799 28.8526 27.9761 28.6068 27.9761 28.3077V9.97438H4.64272ZM4.00168 8.30771H28.6171C28.9162 8.30771 29.162 8.21154 29.3543 8.01921C29.5466 7.8269 29.6427 7.58118 29.6427 7.28204V3.69229C29.6427 3.39315 29.5466 3.14743 29.3543 2.95512C29.162 2.76282 28.9162 2.66667 28.6171 2.66667H4.00168C3.70254 2.66667 3.45682 2.76282 3.26451 2.95512C3.07221 3.14743 2.97605 3.39315 2.97605 3.69229V7.28204C2.97605 7.58118 3.07221 7.8269 3.26451 8.01921C3.45682 8.21154 3.70254 8.30771 4.00168 8.30771ZM11.9504 17.4423H20.6683V16H11.9504V17.4423Z" fill="white"/>
</svg>
