<svg width="22" height="22" viewBox="0 0 22 22" fill="none" xmlns="http://www.w3.org/2000/svg">
<g clip-path="url(#clip0_62_207)">
<path d="M15.8125 16.5H13.0625V19.25H15.8125V16.5Z" fill="white"/>
<path d="M20.625 16.5H17.875V19.25H20.625V16.5Z" fill="white"/>
<path d="M15.8125 11.6875H13.0625V14.4375H15.8125V11.6875Z" fill="white"/>
<path d="M20.625 11.6875H17.875V14.4375H20.625V11.6875Z" fill="white"/>
<path d="M11.6875 16.5H2.75V6.875H19.25V10.3125H20.625V6.875C20.6246 6.51046 20.4796 6.16096 20.2218 5.90319C19.964 5.64542 19.6145 5.50042 19.25 5.5H15.125V2.75C15.1246 2.38546 14.9796 2.03596 14.7218 1.77819C14.464 1.52042 14.1145 1.37542 13.75 1.375H8.25C7.88544 1.37536 7.53591 1.52035 7.27813 1.77813C7.02035 2.03591 6.87536 2.38544 6.875 2.75V5.5H2.75C2.38544 5.50036 2.03591 5.64535 1.77813 5.90313C1.52035 6.16091 1.37536 6.51044 1.375 6.875V16.5C1.37542 16.8645 1.52042 17.214 1.77819 17.4718C2.03596 17.7296 2.38546 17.8746 2.75 17.875H11.6875V16.5ZM8.25 2.75H13.75V5.5H8.25V2.75Z" fill="white"/>
</g>
<defs>
<clipPath id="clip0_62_207">
<rect width="22" height="22" fill="white"/>
</clipPath>
</defs>
</svg>
