<svg width="30" height="30" viewBox="0 0 30 30" fill="none" xmlns="http://www.w3.org/2000/svg">
<g clip-path="url(#clip0_12_697)">
<path d="M15.625 7.49999H15.75C17.3251 7.17632 18.7374 6.31172 19.7419 5.05604C20.7465 3.80036 21.28 2.23277 21.25 0.624992C21.2495 0.531113 21.228 0.438539 21.1869 0.354142C21.1457 0.269746 21.0861 0.195696 21.0125 0.137492C20.9428 0.077612 20.8606 0.0341634 20.7719 0.0103622C20.6832 -0.013439 20.5902 -0.0169832 20.5 -8.22272e-06C18.9227 0.32404 17.5088 1.19049 16.504 2.44876C15.4992 3.70704 14.967 5.27759 15 6.88749C15 7.05325 15.0658 7.21222 15.183 7.32943C15.3002 7.44664 15.4592 7.51249 15.625 7.51249V7.49999Z" fill="white"/>
<path d="M27.0875 20.6625C26.0963 20.2565 25.249 19.5636 24.6544 18.6727C24.0597 17.7818 23.7448 16.7336 23.75 15.6625C23.7502 14.689 24.0053 13.7325 24.49 12.8881C24.9746 12.0438 25.6719 11.3411 26.5125 10.85C26.5935 10.8033 26.663 10.7391 26.7159 10.662C26.7687 10.585 26.8037 10.497 26.8181 10.4047C26.8324 10.3123 26.8259 10.2179 26.799 10.1284C26.7721 10.0389 26.7254 9.95659 26.6625 9.8875C25.9693 9.14338 25.1321 8.548 24.2016 8.13757C23.2711 7.72713 22.2669 7.51021 21.25 7.5C20.2417 7.52174 19.2476 7.74264 18.325 8.15C17.4741 8.52823 16.556 8.73224 15.625 8.75C14.694 8.73224 13.7759 8.52823 12.925 8.15C12.0024 7.74264 11.0083 7.52174 10 7.5C9.2375 7.5 2.5 7.75 2.5 16.25C2.5 23.2 7.25 30 10 30C11.2106 30.0137 12.4096 29.762 13.5125 29.2625C14.1719 28.9426 14.8923 28.7678 15.625 28.75C16.3577 28.7678 17.0781 28.9426 17.7375 29.2625C18.8404 29.762 20.0394 30.0137 21.25 30C23.4875 30 26.125 25.5875 27.5 21.45C27.5251 21.3712 27.5344 21.2882 27.5272 21.2059C27.52 21.1235 27.4966 21.0434 27.4582 20.9701C27.4198 20.8969 27.3673 20.832 27.3037 20.7792C27.24 20.7264 27.1666 20.6867 27.0875 20.6625Z" fill="white"/>
</g>
<defs>
<clipPath id="clip0_12_697">
<rect width="30" height="30" fill="white"/>
</clipPath>
</defs>
</svg>
