<svg width="30" height="13" viewBox="0 0 30 13" fill="none" xmlns="http://www.w3.org/2000/svg">
<path d="M13.1499 13H7.44906C5.6318 13 4.08276 12.3664 2.80193 11.0993C1.52109 9.83209 0.880676 8.29957 0.880676 6.50171C0.880676 4.70388 1.52109 3.17081 2.80193 1.90249C4.08276 0.634162 5.6318 0 7.44906 0H13.1499V1.59434H7.44906C6.08581 1.59434 4.91879 2.07469 3.94799 3.03538C2.97719 3.99608 2.49179 5.15095 2.49179 6.5C2.49179 7.84905 2.97719 9.00392 3.94799 9.96462C4.91879 10.9253 6.08581 11.4057 7.44906 11.4057H13.1499V13ZM9.74179 7.29717V5.70283H21.0196V7.29717H9.74179ZM17.6115 13V11.4057H23.3123C24.6755 11.4057 25.8426 10.9253 26.8134 9.96462C27.7842 9.00392 28.2696 7.84905 28.2696 6.5C28.2696 5.15095 27.7842 3.99608 26.8134 3.03538C25.8426 2.07469 24.6755 1.59434 23.3123 1.59434H17.6115V0H23.3123C25.1295 0 26.6786 0.633577 27.9594 1.90073C29.2403 3.16791 29.8807 4.70043 29.8807 6.49829C29.8807 8.29612 29.2403 9.82919 27.9594 11.0975C26.6786 12.3658 25.1295 13 23.3123 13H17.6115Z" fill="white"/>
</svg>
