<svg width="36" height="35" viewBox="0 0 36 35" fill="none" xmlns="http://www.w3.org/2000/svg">
<path d="M32.5335 17.4999L32.6855 17.237L34.6197 13.8942C34.6197 13.8942 34.6198 13.8941 34.6198 13.894C34.7825 13.6124 34.8268 13.2776 34.7428 12.9634C34.6588 12.6491 34.4535 12.3811 34.172 12.2181C34.1719 12.2181 34.1719 12.218 34.1718 12.218L30.8256 10.2838L30.5633 10.1322V9.82926V5.97463C30.5633 5.64917 30.434 5.33705 30.2039 5.10693C29.9738 4.8768 29.6617 4.74752 29.3363 4.74752H25.4835H25.1805L25.0289 4.48517L23.0972 1.14166C23.097 1.1414 23.0969 1.14115 23.0967 1.14089C22.9327 0.859321 22.6645 0.65354 22.3501 0.567985L32.5335 17.4999ZM32.5335 17.4999L32.6854 17.7627M32.5335 17.4999L32.6854 17.7627M32.6854 17.7627L34.618 21.1057L34.6182 21.1061C34.699 21.2456 34.7515 21.3997 34.7727 21.5596C34.7939 21.7194 34.7835 21.8819 34.7419 22.0377C34.7003 22.1935 34.6284 22.3395 34.5303 22.4675C34.4322 22.5955 34.3099 22.7029 34.1703 22.7836L34.1702 22.7836L30.8238 24.7179L30.5616 24.8695V25.1724V29.0253C30.5616 29.3508 30.4323 29.6629 30.2022 29.893C29.972 30.1231 29.6599 30.2524 29.3345 30.2524H25.4818H25.1787L25.0271 30.5149L23.0951 33.8606C23.095 33.8608 23.0949 33.861 23.0947 33.8612C22.9315 34.1424 22.6634 34.3474 22.3493 34.4313C22.035 34.5153 21.7003 34.4712 21.4184 34.3088C21.4184 34.3087 21.4183 34.3087 21.4182 34.3087L18.0723 32.3746L17.8094 32.2227L17.5466 32.3747L14.2039 34.3089C14.0141 34.4186 13.802 34.4748 13.59 34.475C13.3746 34.4734 13.1633 34.416 12.9767 34.3083C12.79 34.2005 12.6345 34.046 12.5254 33.86C12.5252 33.8597 12.525 33.8593 12.5247 33.8589L10.5919 30.5147L10.4403 30.2524H10.1373H6.28281C5.95738 30.2524 5.64527 30.1231 5.41516 29.893C5.18504 29.6629 5.05576 29.3508 5.05576 29.0253V25.1724V24.8695L4.79349 24.7179L1.44923 22.7848C1.44889 22.7846 1.44854 22.7844 1.4482 22.7842C1.16751 22.6198 0.963055 22.3513 0.879345 22.0369C0.795615 21.7224 0.839469 21.3876 1.00133 21.1054C1.0015 21.1051 1.00166 21.1048 1.00182 21.1045L2.93528 17.7629L3.08741 17.5L2.93528 17.237L1.00102 13.894L1.00038 13.8929C0.919313 13.7536 0.866576 13.5996 0.845197 13.4399C0.823818 13.2801 0.834219 13.1177 0.875802 12.9619C0.917385 12.8062 0.989331 12.6602 1.08751 12.5323C1.18568 12.4045 1.30815 12.2973 1.44787 12.2169L1.44883 12.2164L4.79524 10.282L5.05751 10.1304V9.82751V5.97463C5.05751 5.64918 5.18679 5.33706 5.41691 5.10693C5.64703 4.8768 5.95913 4.74752 6.28456 4.74752H10.1373H10.4403L10.5919 4.48524L12.5261 1.13872L12.5262 1.13851C12.689 0.85668 12.957 0.651035 13.2713 0.566812C13.5856 0.482592 13.9205 0.526679 14.2023 0.689377C14.2023 0.689383 14.2024 0.68939 14.2024 0.689396L17.5484 2.62524L17.8112 2.77727L18.074 2.62534L21.4204 0.691018L21.4216 0.690323M32.6854 17.7627L21.4216 0.690323M21.4216 0.690323C21.5606 0.609504 21.7142 0.557074 21.8736 0.536074C22.0329 0.515089 22.1947 0.525905 22.3498 0.567894L21.4216 0.690323ZM13.6402 25.9623L14.0602 26.277L14.375 25.8571L24.8873 11.8403L25.2024 11.4201L24.7822 11.1052L21.9789 9.0044L21.5589 8.68968L21.244 9.10953L10.7317 23.1264L10.4166 23.5465L10.8369 23.8615L13.6402 25.9623ZM15.6595 9.12147C15.0682 8.52978 14.2661 8.19721 13.4296 8.19693C12.5931 8.19665 11.7908 8.52869 11.1991 9.11999C10.6074 9.71129 10.2749 10.5134 10.2746 11.3499C10.2743 12.1864 10.6063 12.9888 11.1976 13.5805C11.7889 14.1721 12.591 14.5047 13.4275 14.505C14.264 14.5053 15.0663 14.1732 15.658 13.5819C16.2497 12.9906 16.5822 12.1885 16.5825 11.352C16.5828 10.5155 16.2507 9.71317 15.6595 9.12147ZM20.9826 26.5275C21.3652 26.6861 21.7753 26.7678 22.1895 26.768C23.026 26.7683 23.8283 26.4362 24.42 25.8449C25.0117 25.2536 25.3442 24.4515 25.3445 23.615C25.3448 22.7785 25.0127 21.9762 24.4215 21.3845C23.8302 20.7928 23.0281 20.4602 22.1916 20.4599C21.7774 20.4598 21.3672 20.5412 20.9845 20.6996C20.6018 20.858 20.2541 21.0902 19.9611 21.383C19.6681 21.6758 19.4357 22.0234 19.2771 22.406C19.1184 22.7886 19.0367 23.1987 19.0366 23.6129C19.0364 24.0271 19.1179 24.4373 19.2763 24.82C19.4346 25.2027 19.6668 25.5505 19.9596 25.8434C20.2524 26.1364 20.6 26.3689 20.9826 26.5275Z" stroke="white" stroke-width="1.05"/>
</svg>
