<svg width="17" height="21" viewBox="0 0 17 21" fill="none" xmlns="http://www.w3.org/2000/svg">
<path d="M8.7366 0C3.06587 0 0.206299 4.10862 0.206299 7.53557C0.206299 9.61013 0.983488 11.4556 2.65015 12.1428C2.92354 12.2567 3.16855 12.147 3.24785 11.8412C3.30295 11.6303 3.4336 11.0962 3.49161 10.8731C3.57134 10.5706 3.54045 10.4652 3.31965 10.2007C2.83923 9.62827 2.53161 8.88669 2.53161 7.83549C2.53161 4.78735 4.78846 2.05853 8.40811 2.05853C11.6133 2.05853 13.3743 4.03776 13.3743 6.68052C13.3743 10.1589 11.8512 13.0944 9.59058 13.0944C8.34174 13.0944 7.40761 12.0513 7.70647 10.771C8.06501 9.24272 8.75997 7.59421 8.75997 6.49028C8.75997 5.50319 8.2353 4.67978 7.1505 4.67978C5.8741 4.67978 4.84856 6.01445 4.84856 7.80175C4.84856 8.94027 5.22923 9.71053 5.22923 9.71053C5.22923 9.71053 3.9232 15.304 3.69405 16.2835C3.23825 18.2344 3.6256 20.6254 3.65857 20.8667C3.67777 21.0101 3.85976 21.0447 3.9424 20.9367C4.05969 20.781 5.58067 18.8845 6.09699 16.9888C6.2435 16.4526 6.93637 13.6736 6.93637 13.6736C7.35126 14.4734 8.56338 15.1762 9.85229 15.1762C13.6886 15.1762 16.2919 11.6417 16.2919 6.91042C16.2923 3.33204 13.2937 0 8.7366 0Z" fill="white"/>
</svg>
