<svg width="17" height="17" viewBox="0 0 17 17" fill="none" xmlns="http://www.w3.org/2000/svg">
<path d="M8.0663 1.86494C8.49238 1.36208 9.26795 1.36208 9.69403 1.86494L10.2074 2.47092C10.4687 2.77928 10.8818 2.91351 11.2744 2.8176L12.0459 2.62913C12.6862 2.47273 13.3137 2.92861 13.3628 3.58585L13.4219 4.37789C13.4521 4.78092 13.7074 5.13232 14.0813 5.2855L14.8163 5.58653C15.4262 5.83631 15.6659 6.57396 15.3193 7.13455L14.9017 7.81007C14.6891 8.15385 14.6891 8.5882 14.9017 8.93199L15.3193 9.60751C15.6659 10.1681 15.4262 10.9057 14.8163 11.1555L14.0813 11.4566C13.7074 11.6097 13.4521 11.9612 13.4219 12.3641L13.3628 13.1562C13.3137 13.8134 12.6862 14.2693 12.0459 14.1129L11.2744 13.9245C10.8818 13.8285 10.4687 13.9628 10.2074 14.2711L9.69403 14.8771C9.26795 15.38 8.49238 15.38 8.0663 14.8771L7.55291 14.2711C7.29163 13.9628 6.87857 13.8285 6.48593 13.9245L5.7144 14.1129C5.07415 14.2693 4.44667 13.8134 4.39757 13.1562L4.3384 12.3641C4.30829 11.9612 4.05298 11.6097 3.67898 11.4566L2.944 11.1555C2.3341 10.9057 2.09442 10.1681 2.44102 9.60751L2.85869 8.93199C3.07123 8.5882 3.07123 8.15385 2.85869 7.81007L2.44102 7.13455C2.09442 6.57396 2.3341 5.83631 2.944 5.58653L3.67898 5.2855C4.05298 5.13232 4.30829 4.78092 4.3384 4.37789L4.39757 3.58585C4.44667 2.92861 5.07415 2.47273 5.7144 2.62913L6.48593 2.8176C6.87857 2.91351 7.29163 2.77928 7.55291 2.47092L8.0663 1.86494Z" fill="#2081E2"/>
<path d="M8.08151 9.77113L6.68151 8.37113L6.21484 8.83779L8.08151 10.7045L12.0815 6.70446L11.6148 6.23779L8.08151 9.77113Z" fill="white" stroke="white" stroke-width="0.533333"/>
</svg>
