<svg width="21" height="19" viewBox="0 0 21 19" fill="none" xmlns="http://www.w3.org/2000/svg">
<path d="M9.41418 0.936815C9.71353 0.0155042 11.0169 0.015506 11.3163 0.936817L12.9471 5.95607C13.081 6.36809 13.465 6.64705 13.8982 6.64705H19.1758C20.1445 6.64705 20.5473 7.88667 19.7635 8.45607L15.4939 11.5581C15.1434 11.8128 14.9968 12.2642 15.1306 12.6762L16.7615 17.6954C17.0608 18.6167 16.0064 19.3829 15.2227 18.8135L10.953 15.7114C10.6025 15.4567 10.1279 15.4567 9.77745 15.7114L5.50782 18.8135C4.7241 19.3829 3.66962 18.6167 3.96898 17.6954L5.59983 12.6762C5.7337 12.2642 5.58705 11.8128 5.23656 11.5581L0.966925 8.45607C0.183211 7.88667 0.585988 6.64705 1.55471 6.64705H6.83227C7.26549 6.64705 7.64945 6.36809 7.78332 5.95607L9.41418 0.936815Z" fill="#0082D6"/>
</svg>
