<svg width="14" height="15" viewBox="0 0 14 15" fill="none" xmlns="http://www.w3.org/2000/svg">
<path d="M14.0027 6.15126C12.718 6.15435 11.4648 5.75201 10.4201 5.00107V10.2383C10.4198 11.2083 10.1245 12.1551 9.57389 12.9521C9.02324 13.749 8.24344 14.3581 7.33874 14.698C6.43404 15.0379 5.44758 15.0923 4.51125 14.854C3.57493 14.6157 2.73337 14.096 2.09911 13.3644C1.46485 12.6328 1.06812 11.7242 0.961963 10.7601C0.855809 9.79595 1.04529 8.82226 1.50508 7.9692C1.96486 7.11614 2.67303 6.42437 3.53489 5.98639C4.39676 5.54841 5.37123 5.3851 6.32801 5.51829V8.15246C5.89019 8.01416 5.42004 8.01832 4.98471 8.16436C4.54939 8.31039 4.17114 8.59082 3.90399 8.96561C3.63684 9.34039 3.49445 9.79037 3.49716 10.2513C3.49986 10.7122 3.64752 11.1604 3.91904 11.532C4.19057 11.9036 4.57208 12.1796 5.00909 12.3204C5.4461 12.4613 5.91626 12.4599 6.35244 12.3164C6.78861 12.173 7.16849 11.8948 7.43782 11.5216C7.70716 11.1484 7.85217 10.6992 7.85216 10.2383V0H10.4201C10.4184 0.217772 10.4365 0.435247 10.4744 0.649676C10.5636 1.12836 10.7492 1.58372 11.0197 1.98793C11.2902 2.39213 11.6399 2.73667 12.0476 3.00047C12.6275 3.38555 13.3075 3.5908 14.0027 3.59066V6.15126Z" fill="white"/>
</svg>
