<svg width="22" height="16" viewBox="0 0 22 16" fill="none" xmlns="http://www.w3.org/2000/svg">
<path d="M21.0606 1.89399C20.3215 2.21572 19.526 2.43273 18.6913 2.52985C19.5435 2.03027 20.197 1.23895 20.5051 0.294949C19.708 0.758156 18.8256 1.09427 17.8856 1.27572C17.1334 0.490783 16.0611 0 14.8746 0C12.5967 0 10.7498 1.80846 10.7498 4.03937C10.7498 4.3555 10.7861 4.66364 10.8567 4.95978C7.42824 4.79113 4.3883 3.18329 2.35365 0.739371C1.99855 1.33566 1.79529 2.02947 1.79529 2.77044C1.79529 4.17165 2.52344 5.4082 3.63036 6.13239C2.95445 6.11121 2.31814 5.92936 1.76182 5.62682C1.76141 5.6436 1.76141 5.66079 1.76141 5.67797C1.76141 7.63471 3.18343 9.26692 5.07074 9.63861C4.72462 9.73053 4.36014 9.78009 3.98382 9.78009C3.7177 9.78009 3.45934 9.75491 3.20751 9.70735C3.7328 11.312 5.25604 12.4802 7.0609 12.5126C5.64909 13.596 3.87076 14.2419 1.93774 14.2419C1.60509 14.2419 1.27653 14.2227 0.953674 14.1851C2.77976 15.3318 4.94788 16 7.27722 16C14.8652 16 19.0141 9.84523 19.0141 4.50737C19.0141 4.33232 19.0105 4.15767 19.0027 3.98421C19.8084 3.4159 20.508 2.7041 21.0606 1.89399Z" fill="white"/>
</svg>
