<svg width="23" height="23" viewBox="0 0 23 23" fill="none" xmlns="http://www.w3.org/2000/svg">
<path d="M11.1023 0C4.99601 0 0 4.99601 0 11.1023C0 17.2085 4.99601 22.2045 11.1023 22.2045C17.2085 22.2045 22.2045 17.2085 22.2045 11.1023C22.2045 4.99601 17.2085 0 11.1023 0ZM11.1023 3.70075C13.1377 3.70075 14.803 5.73616 14.803 8.32669C14.803 10.9172 13.1377 12.9526 11.1023 12.9526C9.06684 12.9526 7.4015 10.9172 7.4015 8.32669C7.4015 5.73616 9.06684 3.70075 11.1023 3.70075ZM17.2085 18.0412C15.6357 19.4289 13.4152 20.3541 11.1023 20.3541C8.78928 20.3541 6.56883 19.4289 4.99601 18.0412C4.62594 17.6711 4.53342 17.116 4.9035 16.7459C5.9212 15.5432 7.30898 14.7105 8.78928 14.2479C9.52943 14.618 10.2696 14.803 11.1023 14.803C11.9349 14.803 12.6751 14.618 13.4152 14.2479C14.988 14.7105 16.2833 15.5432 17.301 16.7459C17.6711 17.116 17.6711 17.6711 17.2085 18.0412Z" fill="white"/>
</svg>
