<svg width="20" height="19" viewBox="0 0 20 19" fill="none" xmlns="http://www.w3.org/2000/svg">
<path d="M1.70039 18.7045C1.21592 18.7045 0.811404 18.5422 0.486842 18.2176C0.162281 17.8931 0 17.4885 0 17.0041V5.18218H1.05263V17.0041C1.05263 17.193 1.11336 17.3482 1.23482 17.4696C1.35627 17.5911 1.51147 17.6518 1.70039 17.6518H15.2632V18.7045H1.70039ZM11.5789 10.8462L4.21053 6.53037V13.8462C4.21053 14.0351 4.27125 14.1903 4.39271 14.3117C4.51417 14.4332 4.66936 14.4939 4.85829 14.4939H18.2996C18.4885 14.4939 18.6437 14.4332 18.7652 14.3117C18.8866 14.1903 18.9474 14.0351 18.9474 13.8462V6.53037L11.5789 10.8462ZM4.85829 15.5466C4.37382 15.5466 3.9693 15.3843 3.64474 15.0597C3.32018 14.7351 3.15789 14.3306 3.15789 13.8462V5.74897C3.15789 5.47503 3.21086 5.23886 3.31679 5.04047C3.42274 4.84209 3.60864 4.66665 3.8745 4.51416L11.5789 0L13.4899 1.12145L12.7207 1.87853L11.5789 1.21863L4.42105 5.42916L11.5789 9.63968L18.7368 5.42916L17.2146 4.50608L17.9717 3.74897L19.2834 4.51416C19.5493 4.66665 19.7352 4.84209 19.8411 5.04047C19.947 5.23886 20 5.47503 20 5.74897V13.8462C20 14.3306 19.8377 14.7351 19.5132 15.0597C19.1886 15.3843 18.7841 15.5466 18.2996 15.5466H4.85829ZM11.3401 7.57084L9.12145 5.35221L9.86639 4.60729L11.3401 6.08097L16.2348 1.18624L16.9798 1.93116L11.3401 7.57084ZM11.5789 14.4939H18.9474H4.21053H11.5789Z" fill="white"/>
</svg>
