<svg width="142" height="142" viewBox="0 0 142 142" fill="none" xmlns="http://www.w3.org/2000/svg">
<g clip-path="url(#clip0_44_50)">
<path d="M113.6 39.76C113.6 39.76 41.4725 39.76 28.4 39.76C19.6641 39.76 14.2 48.28 14.2 53.96V114.691C14.2 121.933 20.0674 127.8 27.3094 127.8H114.691C121.93 127.8 127.8 121.933 127.8 114.691V53.5227C127.8 46.2892 120.839 39.76 113.6 39.76Z" stroke="white" stroke-width="2" stroke-miterlimit="10" stroke-linecap="round" stroke-linejoin="round"/>
<path d="M105.08 31.24V21.7487C105.08 12.2887 103.038 9.55945 91.3003 12.6551C82.678 14.9299 32.2254 28.9169 32.2254 28.9169C16.6878 34.773 14.3164 39.7572 14.3164 51.1143L14.2 58.0865" stroke="white" stroke-width="2" stroke-miterlimit="10" stroke-linejoin="round"/>
<path d="M109.346 90.8797C105.424 90.8797 102.24 87.7046 102.24 83.7825C102.24 79.8605 105.424 76.6797 109.346 76.6797C113.256 76.6797 116.44 79.8605 116.44 83.7825C116.44 87.7046 113.256 90.8797 109.346 90.8797Z" fill="white"/>
</g>
<defs>
<clipPath id="clip0_44_50">
<rect width="142" height="142" fill="white"/>
</clipPath>
</defs>
</svg>
