<svg width="19" height="18" viewBox="0 0 19 18" fill="none" xmlns="http://www.w3.org/2000/svg">
<path d="M15.4818 8.38574H3.99653C2.17093 8.38574 0.69104 9.85923 0.69104 11.6748V14.3175C0.69104 16.133 2.17093 17.6061 3.99653 17.6061H15.4818C17.307 17.6061 18.7873 16.133 18.7873 14.3175V11.6748C18.7873 9.85923 17.307 8.38574 15.4818 8.38574ZM6.40951 10.4431H5.34175V15.7205H4.31014V10.4431H3.24312V9.54545H6.40951V10.4431ZM9.42574 15.7205H8.51073V15.2214C8.34064 15.406 8.16538 15.5469 7.98238 15.642C7.79937 15.7411 7.62264 15.7873 7.45071 15.7873C7.23819 15.7873 7.08028 15.7201 6.97217 15.5836C6.86591 15.4475 6.81168 15.2456 6.81168 14.9729V11.1646H7.72669V14.6595C7.72669 14.7674 7.74698 14.8449 7.78351 14.8929C7.82299 14.9425 7.88571 14.9652 7.97168 14.9652C8.03809 14.9652 8.12369 14.9337 8.22663 14.8698C8.3303 14.8052 8.42476 14.7245 8.51073 14.6247V11.1643H9.42574V15.7205ZM12.7478 14.7799C12.7478 15.1017 12.6759 15.3491 12.5324 15.5216C12.3896 15.6941 12.1807 15.7789 11.9103 15.7789C11.7302 15.7789 11.5701 15.7466 11.431 15.6798C11.2912 15.6137 11.1595 15.512 11.0396 15.3711V15.7201H10.1135V9.54545H11.0396V11.5342C11.1635 11.3966 11.2945 11.2898 11.4314 11.2182C11.5712 11.1452 11.7118 11.1099 11.8542 11.1099C12.1438 11.1099 12.3645 11.2061 12.5172 11.4002C12.6707 11.5944 12.7471 11.8788 12.7471 12.2517V14.7799H12.7478ZM15.922 13.5523H14.1709V14.4107C14.1709 14.65 14.2004 14.8166 14.2602 14.9094C14.3214 15.0027 14.4244 15.0482 14.5709 15.0482C14.7229 15.0482 14.828 15.0089 14.8893 14.9304C14.9483 14.8511 14.98 14.6786 14.98 14.4107V14.2033H15.922V14.4371C15.922 14.9039 15.808 15.2559 15.5766 15.4933C15.349 15.7286 15.0059 15.8453 14.5498 15.8453C14.1392 15.8453 13.8156 15.7209 13.5806 15.4706C13.3463 15.2218 13.2267 14.8764 13.2267 14.4375V12.3911C13.2267 11.9973 13.3573 11.6733 13.6167 11.4248C13.8754 11.1764 14.2085 11.0523 14.6184 11.0523C15.038 11.0523 15.3601 11.1672 15.5847 11.3977C15.8094 11.6285 15.922 11.9588 15.922 12.3908V13.5523Z" fill="white"/>
<path d="M14.579 11.8486C14.4329 11.8486 14.3289 11.8894 14.2654 11.9745C14.2005 12.0545 14.1702 12.1914 14.1702 12.3826V12.8432H14.9793V12.3826C14.9793 12.1914 14.9469 12.0541 14.8827 11.9745C14.8211 11.8897 14.7181 11.8486 14.579 11.8486Z" fill="white"/>
<path d="M11.4215 11.833C11.3566 11.833 11.2909 11.8473 11.2278 11.877C11.1636 11.906 11.1009 11.9541 11.0389 12.0165V14.8545C11.1123 14.9279 11.185 14.9844 11.2558 15.0167C11.3263 15.0479 11.3994 15.0655 11.4772 15.0655C11.5897 15.0655 11.6716 15.0332 11.7244 14.9679C11.7764 14.9033 11.803 14.8002 11.803 14.6545V12.3017C11.803 12.1468 11.772 12.0308 11.7071 11.9512C11.6399 11.8726 11.5447 11.833 11.4215 11.833Z" fill="white"/>
<path d="M5.50183 6.80335H6.66184V3.98116L8.01259 0H6.8334L6.11541 2.71943H6.04236L5.28858 0H4.12009L5.50183 4.10814V6.80335Z" fill="white"/>
<path d="M9.58191 6.93009C10.0505 6.93009 10.418 6.80788 10.6858 6.56346C10.9519 6.31794 11.085 5.98287 11.085 5.55349V2.96104C11.085 2.57899 10.9489 2.26448 10.6777 2.0219C10.4047 1.78005 10.0549 1.6582 9.6284 1.6582C9.15982 1.6582 8.78681 1.77344 8.50935 2.00355C8.23263 2.23365 8.09354 2.54229 8.09354 2.93241V5.53367C8.09354 5.96048 8.22894 6.29812 8.49939 6.55135C8.76984 6.80347 9.13141 6.93009 9.58191 6.93009ZM9.15466 2.89424C9.15466 2.78524 9.19414 2.69717 9.27125 2.62817C9.35131 2.56064 9.45278 2.52798 9.57896 2.52798C9.7151 2.52798 9.82542 2.56064 9.90955 2.62817C9.9933 2.69717 10.035 2.78524 10.035 2.89424V5.62872C10.035 5.76267 9.99404 5.8691 9.91102 5.94581C9.82874 6.02287 9.71806 6.06067 9.57896 6.06067C9.44281 6.06067 9.33766 6.02397 9.26387 5.94691C9.19119 5.87167 9.15429 5.76598 9.15429 5.62835V2.89424H9.15466Z" fill="white"/>
<path d="M12.6412 6.87684C12.8349 6.87684 13.0337 6.82179 13.2385 6.7161C13.4455 6.60894 13.6436 6.45223 13.8322 6.24782V6.80381H14.8626V1.78516H13.8322V5.59456C13.7362 5.70356 13.6296 5.79311 13.5152 5.86431C13.3986 5.93477 13.3027 5.97 13.2271 5.97C13.1304 5.97 13.0592 5.94358 13.0175 5.88889C12.9751 5.83641 12.9511 5.75054 12.9511 5.63273V1.78516H11.9221V5.97954C11.9221 6.27864 11.9826 6.50214 12.1021 6.65041C12.2239 6.80088 12.4017 6.87684 12.6412 6.87684Z" fill="white"/>
</svg>
